<svg width="160" height="22" viewBox="0 0 160 22" fill="none" xmlns="http://www.w3.org/2000/svg">
<path d="M15.0684 11.1554L22.5125 22H16.7793L11.4964 14.1073H10.9861L5.70317 22H0L7.41412 11.1554L0 0.279659H5.70317L10.9861 8.17232H11.4964L16.7793 0.279659H22.5125L15.0684 11.1554Z" fill="white"/>
<path d="M34.0296 8.82486C38.7422 9.63277 44.1152 10.3475 44.1152 15.2571C44.1152 20.6638 40.6332 22 34.4798 22C24.124 22 24.1541 16.065 24.1541 13.9831C25.0846 13.9831 26.2552 13.9831 28.8367 13.9831C28.8367 17.2458 31.6282 17.774 34.3597 17.774C37.8117 17.774 39.2525 16.935 39.2525 15.2571C39.2525 13.7966 37.8117 13.5169 33.6994 12.8955C27.3959 11.9322 24.5743 10.596 24.5743 6.61864C24.5743 3.54237 26.7655 0 33.6393 0C41.8039 0 43.4248 4.72316 43.4248 8.01695C43.4248 8.01695 40.243 8.01695 38.6221 8.01695C38.6221 6.52542 37.9918 4.28813 33.6393 4.28813C30.0974 4.28813 29.2869 5.59322 29.2869 6.64972C29.2869 7.79944 30.5176 8.23446 34.0296 8.82486Z" fill="white"/>
<path d="M59.9558 11.435C59.9558 9.07345 59.9558 0.248586 59.9558 0.248586H64.7284C64.7284 0.248586 64.7284 9.0113 64.7284 11.9944C64.7284 14.9463 64.7284 22 55.2431 22C45.7279 22 45.7579 15.3192 45.7579 11.9633V0.248586H50.3204V11.435C50.3204 14.6977 50.4405 17.6808 55.2131 17.6808C60.0458 17.6808 59.9558 13.7966 59.9558 11.435Z" fill="white"/>
<path d="M75.9181 8.82486C80.6307 9.63277 86.0037 10.3475 86.0037 15.2571C86.0037 20.6638 82.5218 22 76.3683 22C66.0126 22 66.0426 16.065 66.0426 13.9831C66.9731 13.9831 68.1438 13.9831 70.7252 13.9831C70.7252 17.2458 73.5168 17.774 76.2483 17.774C79.7002 17.774 81.141 16.935 81.141 15.2571C81.141 13.7966 79.7002 13.5169 75.5879 12.8955C69.2844 11.9322 66.4628 10.596 66.4628 6.61864C66.4628 3.54237 68.654 0 75.5279 0C83.6924 0 85.3133 4.72316 85.3133 8.01695C85.3133 8.01695 82.1315 8.01695 80.5106 8.01695C80.5106 6.52542 79.8803 4.28813 75.5279 4.28813C71.9859 4.28813 71.1754 5.59322 71.1754 6.64972C71.1754 7.79944 72.4061 8.23446 75.9181 8.82486Z" fill="white"/>
<path d="M86.0635 4.5678V0.248586H106.505V4.5678H98.5504V22H93.9879V4.5678H86.0635Z" fill="white"/>
<path d="M117.256 0.279659L124.76 22H120.018L118.787 18.4266H108.071L106.81 22H102.098L109.602 0.279659H117.256ZM109.542 14.1073H117.286L114.014 4.5678H112.844L109.542 14.1073Z" fill="white"/>
<path d="M130.316 22H125.754V0.248586H130.316V22Z" fill="white"/>
<path d="M148.414 15.8785V0.248586H152.976V22H146.402L137.187 6.40113H136.677V22H132.114V0.248586H138.268V0.279659H138.688L147.873 15.8785H148.414Z" fill="white"/>
<path d="M157.299 22C155.828 22 154.627 20.7571 154.627 19.2345C154.627 17.6808 155.828 16.4379 157.299 16.4379C158.799 16.4379 160 17.6808 160 19.2345C160 20.7571 158.799 22 157.299 22Z" fill="white"/>
</svg>
