<?xml version="1.0" encoding="utf-8"?>
<!-- Generator: Adobe Illustrator 24.3.0, SVG Export Plug-In . SVG Version: 6.00 Build 0)  -->
<svg version="1.1" id="Layer_1" xmlns="http://www.w3.org/2000/svg" xmlns:xlink="http://www.w3.org/1999/xlink" x="0px" y="0px"
	 viewBox="0 0 1080 314.83" style="enable-background:new 0 0 1080 314.83;" xml:space="preserve">
<style type="text/css">
	.st0{fill:#262626;}
</style>
<g>
	<g>
		<g>
			<path class="st0" d="M422.65,223.74c-22.05,0-44.48-8.51-55.11-26.49l11.22-11.02c8.9,12.57,24.75,18.76,38.68,18.76
				c14.5,0,26.88-6.77,26.88-20.3c0-29.78-70.97-21.27-71.94-63.04v-0.77c0.39-24.95,23.4-35,47.57-35
				c27.27,0,55.89,12.76,55.89,31.91c0,10.25-6.58,18.37-17.4,18.37c-12.76,0-23.01-11.6-15.47-27.85
				c-2.71-4.25-9.09-6.38-16.05-6.38c-11.41,0-24.17,5.99-23.79,19.34c0,18.76,73.87,14.89,73.87,63.43
				C476.99,210.01,450.3,223.74,422.65,223.74z"/>
			<path class="st0" d="M600.95,131.3c0,26.88-18.76,42.35-52.99,43.51h-22.63v47.76h-29.59V87.21h48.93
				C565.95,87.41,600.95,90.11,600.95,131.3z M570.78,130.72c0-17.98-12.96-25.33-30.36-25.33h-15.08v51.44h18.56
				C559.56,156.64,570.78,147.74,570.78,130.72z"/>
			<path class="st0" d="M747.53,155.67c0,38.29-30.75,68.65-68.65,68.65c-17.79,0-35.39-6.96-48.54-20.11
				c-19.53-19.72-25.33-49.31-14.5-75.03c10.64-25.53,35.78-42.16,63.62-41.96C717.17,87.21,747.72,117.96,747.53,155.67z
				 M718.14,155.67c0-27.85-17.4-50.47-38.68-50.47c-21.47,0-38.68,22.63-38.68,50.47c0,28.04,17.21,50.67,38.68,50.67
				C700.73,206.33,718.14,183.71,718.14,155.67z"/>
			<path class="st0" d="M841.51,222.58v-0.19c0-43.7-26.3-47.38-37.13-47.57h-10.25v47.76h-29.59V87.21h42.54
				c20.88,0,59.17,0.97,59.17,44.09c0,17.4-7.73,29.97-22.63,36.94c15.08,7.74,24.75,23.4,24.75,54.15L841.51,222.58z M836.1,130.72
				c0-17.98-12.96-25.33-30.36-25.33h-11.6v51.44h15.08C824.88,156.64,836.1,147.74,836.1,130.72z"/>
			<path class="st0" d="M985.39,87.21v18.95h-39.84v116.41h-29.59V106.16h-39.84V87.21H985.39z"/>
		</g>
	</g>
	<g>
		<g>
			<path class="st0" d="M122.29,237.14c-3.33-4.29-7.13-8.29-9.93-12.9c-16.52-27.31-21.76-56.63-13.7-87.68
				c13.96-53.81,71.83-93.82,132.5-73.42c10.93,3.68,20.84,9.24,29.46,16.94c3.42,3.06,6.37,6.54,7.45,11.17
				c1.05,4.5,0.43,8.73-3.16,11.93c-3.48,3.1-7.76,3.16-11.59,1.17c-3.29-1.71-6.89-3.87-8.9-6.83
				c-20.78-30.63-60.19-32.08-87.19-21.21c-41.09,16.54-64.14,55.36-59.18,100.59c2.4,21.88,9.42,41.97,23.88,59.02
				c0.27,0.32,0.47,0.69,0.71,1.04C122.53,237.01,122.41,237.08,122.29,237.14z"/>
			<path class="st0" d="M297.84,179.21c-2.89,30.83-17,55.06-44.64,69.72c-31.02,16.45-61.85,14.05-90.74-5.86
				c-23.59-16.26-35.87-44.17-35.42-65.95c0.84,4.42,1.3,8.6,2.44,12.6c6.31,22.15,21.03,37.26,41.5,46.4
				c32.2,14.38,63.93,12.47,93.78-6.57c17.89-11.41,29.29-27.79,31.99-49.42c0.05-0.4,0.16-0.79,0.24-1.18
				C297.26,179.03,297.55,179.12,297.84,179.21z"/>
			<path class="st0" d="M177.5,119c21.35-7.21,53.28,2.04,65.33,30.17c11.13,25.99-0.89,57.72-25.78,68.51
				c2.64-2.05,5.64-3.96,8.13-6.4c10.6-10.41,14.5-23.46,13.23-37.87c-2.02-22.86-12.82-40.34-33.6-50.9
				c-7.81-3.97-16.24-5.17-24.96-3.62c-0.72,0.13-1.45,0.18-2.18,0.25C177.61,119.16,177.55,119.05,177.5,119z"/>
		</g>
	</g>
</g>
</svg>
